<svg width="60" height="60" viewBox="0 0 60 60" fill="none" xmlns="http://www.w3.org/2000/svg">
<circle cx="30" cy="30" r="30" fill="#FF7931"/>
<path d="M30.6183 50.103C41.3793 50.103 50.1029 41.3795 50.1029 30.6185C50.1029 19.8575 41.3793 11.134 30.6183 11.134C19.8573 11.134 11.1338 19.8575 11.1338 30.6185C11.1338 41.3795 19.8573 50.103 30.6183 50.103Z" stroke="white" stroke-width="2" stroke-miterlimit="10"/>
<path d="M30.6188 45.5909C38.8878 45.5909 45.5911 38.8876 45.5911 30.6186C45.5911 22.3496 38.8878 15.6462 30.6188 15.6462C22.3498 15.6462 15.6465 22.3496 15.6465 30.6186C15.6465 38.8876 22.3498 45.5909 30.6188 45.5909Z" stroke="white" stroke-width="2" stroke-miterlimit="10"/>
<path d="M30.6188 36.703C33.9793 36.703 36.7035 33.9788 36.7035 30.6184C36.7035 27.2579 33.9793 24.5337 30.6188 24.5337C27.2584 24.5337 24.5342 27.2579 24.5342 30.6184C24.5342 33.9788 27.2584 36.703 30.6188 36.703Z" stroke="white" stroke-width="2" stroke-miterlimit="10"/>
<path d="M30.6185 33.9C32.4687 33.9 33.9685 32.4002 33.9685 30.55C33.9685 28.6999 32.4687 27.2 30.6185 27.2C28.7684 27.2 27.2686 28.6999 27.2686 30.55C27.2686 32.4002 28.7684 33.9 30.6185 33.9Z" stroke="white" stroke-width="2" stroke-miterlimit="10"/>
<path d="M25.9014 16.3983C26.0381 17.0136 26.1749 17.6973 26.1749 18.3126C26.1749 22.6197 22.6882 26.1064 18.3811 26.1064C17.6974 26.1064 17.0821 26.038 16.4668 25.8329" stroke="white" stroke-width="2" stroke-miterlimit="10"/>
<path d="M35.336 16.3982C35.1992 17.0135 35.0625 17.6972 35.0625 18.3125C35.0625 22.6196 38.5492 26.1063 42.8563 26.1063C43.54 26.1063 44.1553 26.0379 44.7706 25.8328" stroke="white" stroke-width="2" stroke-miterlimit="10"/>
<path d="M25.9014 44.8388C26.0381 44.2235 26.1749 43.5398 26.1749 42.9245C26.1749 38.6174 22.6882 35.1307 18.3811 35.1307C17.6974 35.1307 17.0821 35.1991 16.4668 35.4042" stroke="white" stroke-width="2" stroke-miterlimit="10"/>
<path d="M35.336 44.8387C35.1992 44.2234 35.0625 43.5397 35.0625 42.9244C35.0625 38.6173 38.5492 35.1306 42.8563 35.1306C43.54 35.1306 44.1553 35.199 44.7706 35.4041" stroke="white" stroke-width="2" stroke-miterlimit="10"/>
</svg>
