<svg width="60" height="60" viewBox="0 0 60 60" fill="none" xmlns="http://www.w3.org/2000/svg">
<circle cx="30" cy="30" r="30" fill="#FF7931"/>
<path d="M33.8892 14.8456V25.1529C33.8892 25.2172 33.8892 25.346 33.8892 25.4103C33.6384 26.4403 32.0076 27.2127 30.0633 27.2127C28.1189 27.2127 26.4882 26.4403 26.2373 25.4103C26.2373 25.346 26.2373 25.2816 26.2373 25.1529V14.6605C26.2373 14.5962 26.2373 14.4674 26.3 14.403C26.6136 13.6306 28.1816 13.0513 30.126 13.0513C32.0703 13.0513 33.7119 13.6084 33.7955 14.403C33.7955 14.403 33.8892 14.7168 33.8892 14.8456Z" stroke="white" stroke-width="2" stroke-miterlimit="10"/>
<path d="M30.0007 13.0514C29.5616 13.0514 29.248 12.6652 29.248 12.279V10.6697C29.248 10.2191 29.6244 9.89726 30.0007 9.89726C30.4397 9.89726 30.7533 10.2835 30.7533 10.6697V12.279C30.7533 12.7295 30.4397 13.0514 30.0007 13.0514Z" fill="white"/>
<path d="M29.2474 11.1204C29.2474 11.1204 28.9965 12.4722 26.9268 13.1159H30.0001L29.2474 11.1204Z" fill="white"/>
<path d="M30.7526 11.1204C30.7526 11.1204 31.0035 12.4722 33.0733 13.1159H30L30.7526 11.1204Z" fill="white"/>
<path d="M32.0702 27.0194H27.9307V29.1437H32.0702V27.0194Z" fill="white" fill-opacity="0.7"/>
<path d="M30.0004 30.4956C32.9794 30.4956 35.3944 30.1497 35.3944 29.7231C35.3944 29.2965 32.9794 28.9507 30.0004 28.9507C27.0214 28.9507 24.6064 29.2965 24.6064 29.7231C24.6064 30.1497 27.0214 30.4956 30.0004 30.4956Z" stroke="white" stroke-width="2" stroke-miterlimit="10"/>
<path d="M24.6064 29.4013V33.1347" stroke="white" stroke-width="2" stroke-miterlimit="10"/>
<path d="M35.3945 29.723V33.3921" stroke="white" stroke-width="2" stroke-miterlimit="10"/>
<path d="M38.9694 33.9071C38.9694 34.6152 34.9553 35.7739 30.0003 35.7739C25.0454 35.7739 21.0312 34.6796 21.0312 33.9071C21.0312 33.6497 23.101 32.5554 24.6063 32.5554C25.6099 32.8128 28.495 33.0703 30.0003 33.0703C31.5056 33.0703 34.4535 32.8128 35.3943 32.5554C36.9623 32.6197 38.9694 33.6497 38.9694 33.9071Z" stroke="white" stroke-width="2" stroke-miterlimit="10"/>
<path d="M35.3944 35.3233V41.0523C35.3944 41.6316 32.9483 42.0822 30.0004 42.0822C27.0526 42.0822 24.6064 41.6316 24.6064 41.0523V35.3233" stroke="white" stroke-width="2" stroke-miterlimit="10"/>
<path d="M26.1123 41.5671V47.3604" stroke="white" stroke-width="2" stroke-miterlimit="10"/>
<path d="M33.8887 41.5671V47.3604" stroke="white" stroke-width="2" stroke-miterlimit="10"/>
<path d="M31.0041 49.4847H28.997C28.558 49.4847 28.1816 49.0985 28.1816 48.6479V42.0821H31.7567V48.6479C31.8194 49.0985 31.4431 49.4847 31.0041 49.4847Z" stroke="white" stroke-width="2" stroke-miterlimit="10"/>
</svg>
