<svg width="60" height="60" viewBox="0 0 60 60" fill="none" xmlns="http://www.w3.org/2000/svg">
<circle cx="30" cy="30" r="30" fill="#FF7931"/>
<rect x="17.7012" y="29.4537" width="25.2165" height="3.56701" stroke="white" stroke-width="2"/>
<path d="M26.0862 25.5981L27.713 20.1754H33.2398L34.5954 25.5981H26.0862Z" stroke="white" stroke-width="2"/>
<path d="M26.1217 36.8761L27.6939 41.6803H32.9245L34.4967 36.8761H26.1217Z" stroke="white" stroke-width="2"/>
<mask id="path-5-inside-1_2_1979" fill="white">
<path d="M27.252 4.94853H33.3659V17.1765H27.252V4.94853Z"/>
</mask>
<path d="M27.252 4.94853V2.94853H25.252V4.94853H27.252ZM33.3659 4.94853H35.3659V2.94853H33.3659V4.94853ZM33.3659 17.1765V19.1765H35.3659V17.1765H33.3659ZM27.252 17.1765H25.252V19.1765H27.252V17.1765ZM27.252 6.94853H33.3659V2.94853H27.252V6.94853ZM31.3659 4.94853V17.1765H35.3659V4.94853H31.3659ZM33.3659 15.1765H27.252V19.1765H33.3659V15.1765ZM29.252 17.1765V4.94853H25.252V17.1765H29.252Z" fill="white" mask="url(#path-5-inside-1_2_1979)"/>
<mask id="path-7-inside-2_2_1979" fill="white">
<path d="M27.252 44.424H33.3659V55.1235H27.252V44.424Z"/>
</mask>
<path d="M27.252 44.424V42.424H25.252V44.424H27.252ZM33.3659 44.424H35.3659V42.424H33.3659V44.424ZM33.3659 55.1235V57.1235H35.3659V55.1235H33.3659ZM27.252 55.1235H25.252V57.1235H27.252V55.1235ZM27.252 46.424H33.3659V42.424H27.252V46.424ZM31.3659 44.424V55.1235H35.3659V44.424H31.3659ZM33.3659 53.1235H27.252V57.1235H33.3659V53.1235ZM29.252 55.1235V44.424H25.252V55.1235H29.252Z" fill="white" mask="url(#path-7-inside-2_2_1979)"/>
<circle cx="30.3094" cy="8.65977" r="1.23711" fill="white"/>
<circle cx="30.3094" cy="51.3403" r="1.23711" fill="white"/>
</svg>
