<svg width="60" height="60" viewBox="0 0 60 60" fill="none" xmlns="http://www.w3.org/2000/svg">
<circle cx="30" cy="30" r="30" fill="#FF7931"/>
<path d="M37.7327 14.2268C37.7327 14.2268 37.7327 15.6495 38.2894 16.6391C38.6605 17.2577 40.578 19.9794 41.7533 21.402C42.4956 22.268 42.31 23.134 42.31 23.3196V47.2577C42.31 47.8144 41.8152 48.1855 41.1347 48.1855H18.1863C17.5677 48.1855 17.3203 47.8144 17.3203 47.2577V26.8453C17.3203 24.9278 17.9389 23.134 19.7945 21.8969L30.9904 16.5773C31.9182 16.1443 32.5368 15.3402 32.5987 14.4742C32.5987 14.3505 32.5987 14.2886 32.5987 14.1649H37.7327V14.2268Z" stroke="white" stroke-width="3" stroke-miterlimit="10"/>
<path d="M37.7324 14.536H32.1654C31.7943 14.536 31.5469 14.2267 31.5469 13.9174V11.1339C31.5469 10.7628 31.8562 10.5154 32.1654 10.5154H37.7324C38.1036 10.5154 38.351 10.8247 38.351 11.1339V13.9174C38.351 14.2267 38.0417 14.536 37.7324 14.536Z" stroke="white" stroke-width="3" stroke-miterlimit="10"/>
<path d="M26.5996 38.0413H38.9707" stroke="white" stroke-width="3" stroke-miterlimit="10"/>
<path d="M26.5996 42.9895H34.6408" stroke="white" stroke-width="3" stroke-miterlimit="10"/>
</svg>
