<svg width="102" height="56" viewBox="0 0 102 56" fill="none" xmlns="http://www.w3.org/2000/svg">
<path d="M36.1335 9.57739C34.8309 11.6298 33.7696 13.8874 32.9977 16.299H7.8635C1.92969 15.7346 0 9.57739 0 9.57739H36.1335Z" fill="#48494D"/>
<path d="M32.1187 35.1196H17.2918C11.3124 34.5552 9.36792 28.3979 9.36792 28.3979H30.7575C30.9033 30.7582 31.3895 33.0159 32.1187 35.1196Z" fill="#48494D"/>
<path d="M37.4719 41.8412H25.5575C19.4001 41.3896 17.3977 36.4639 17.3977 36.4639H33.3669C34.4182 38.3931 35.7698 40.2403 37.4719 41.8412Z" fill="#48494D"/>
<path d="M31.3817 25.3501C31.3817 25.4527 31.3817 25.6067 31.3817 25.7093H12.0235C5.9802 25.1449 4.01489 18.9877 4.01489 18.9877H32.1187C31.6274 20.9888 31.3817 23.1438 31.3817 25.3501Z" fill="#48494D"/>
<path d="M69.8059 12.6659C67.5562 8.91325 64.6066 6.88879 61.507 6.88879C59.6573 6.88879 57.8575 7.62945 56.2078 9.06138C57.3076 9.99954 58.3075 11.1846 59.2073 12.6659C61.657 16.6654 63.0068 21.9981 63.0068 27.7258C63.0068 33.4535 61.657 38.7862 59.2073 42.7858C58.3075 44.2671 57.3076 45.5015 56.2078 46.3903C57.8575 47.8222 59.6573 48.5629 61.507 48.5629C64.5566 48.5629 67.5062 46.489 69.8059 42.7858C72.2555 38.7862 73.6053 33.4535 73.6053 27.7258C73.6053 21.9981 72.2555 16.6654 69.8059 12.6659Z" fill="#FF7931"/>
<path d="M61.5607 0.167114C51.9386 0.167114 44.1632 12.5142 44.1632 27.7258C44.1632 42.9373 51.9872 55.2844 61.5607 55.2844C71.1828 55.2844 78.9582 42.9373 78.9582 27.7258C79.0068 12.5142 71.1828 0.167114 61.5607 0.167114ZM69.8221 42.5916C67.6353 46.3451 64.7681 48.3701 61.7551 48.3701C58.7907 48.3701 55.9235 46.2957 53.6881 42.5916C51.3069 38.5912 49.9948 33.2572 49.9948 27.5282C49.9948 21.7992 51.3069 16.4652 53.6881 12.4648C55.8749 8.71128 58.7421 6.68636 61.7551 6.68636C64.7195 6.68636 67.5867 8.76067 69.8221 12.4648C72.2033 16.4652 73.5154 21.7992 73.5154 27.5282C73.5154 33.2079 72.2033 38.5912 69.8221 42.5916Z" fill="#48494D"/>
<path d="M45.1305 27.7258C45.1305 12.7611 53.022 0.56222 62.899 0.167114C62.7463 0.167114 62.5936 0.167114 62.3899 0.167114C52.3092 0.167114 44.1632 12.5142 44.1632 27.7258C44.1632 42.9373 52.3601 55.2844 62.3899 55.2844C62.5427 55.2844 62.6954 55.2844 62.899 55.2844C53.022 54.8893 45.1305 42.6904 45.1305 27.7258Z" fill="#FF7931"/>
<path d="M61.3427 49.7076H60.9065C60.8581 49.7076 60.7611 49.7076 60.7126 49.7076L60.5188 49.6576L60.3249 49.6077H60.228C60.1795 49.6077 60.1795 49.6077 60.131 49.6077L59.6948 49.5079C59.6463 49.5079 59.5494 49.458 59.5009 49.458L59.3071 49.4081L59.1132 49.3582C59.0647 49.3582 58.9678 49.3083 58.9193 49.2584L58.5315 49.1087L58.1438 48.9091C58.0953 48.8592 57.9984 48.8592 57.9499 48.8093L57.7561 48.7094C57.6591 48.6595 57.5137 48.5597 57.4168 48.5098L57.0775 48.2603L56.8836 48.1605L56.7382 48.0108L56.3989 47.7612C56.302 47.6614 56.205 47.5616 56.1081 47.4618C55.9142 47.2622 55.7204 47.0626 55.5265 46.8629C54.751 46.0645 54.0724 45.1662 53.4908 44.218C52.9092 43.2698 52.4245 42.2717 51.9883 41.2736C51.552 40.2255 51.2128 39.1775 50.8735 38.1295C50.7281 37.5806 50.5827 37.0815 50.4373 36.5326L50.2434 35.7341C50.1949 35.4845 50.1465 35.1851 50.098 34.9356C49.9041 33.8377 49.7587 32.7397 49.6618 31.6418C49.5648 30.5439 49.5164 29.446 49.5164 28.2982C49.5164 27.2003 49.5648 26.1023 49.6618 24.9545C49.7587 23.8566 49.9041 22.7587 50.098 21.6608C50.1465 21.4112 50.1949 21.1118 50.2434 20.8623L50.4373 20.0638C50.5827 19.5148 50.6796 18.9659 50.8735 18.4668C51.1643 17.4188 51.552 16.3708 51.9883 15.3228C52.4245 14.3247 52.9092 13.3266 53.4908 12.3784C54.0724 11.4302 54.751 10.5319 55.5265 9.7334C55.7204 9.53378 55.9142 9.33415 56.1081 9.13453C56.205 9.03472 56.302 8.93491 56.3989 8.8351L56.7382 8.58558L56.8836 8.43586L57.0775 8.33605L57.4168 8.08652C57.5137 8.03662 57.6591 7.93681 57.7561 7.8869L57.9499 7.78709C57.9984 7.73719 58.0953 7.73718 58.1438 7.68728L58.5315 7.48766L58.9193 7.33794C58.9678 7.28804 59.0647 7.28804 59.1132 7.23813L59.3071 7.18823L59.5009 7.13832C59.5494 7.13832 59.6463 7.08842 59.6948 7.08842L60.131 6.98861C60.1795 6.98861 60.1795 6.98861 60.228 6.98861H60.3249L60.5188 6.9387L60.7126 6.88879C60.7611 6.88879 60.8581 6.88879 60.9065 6.88879H61.3427H61.779C61.8274 6.88879 61.9244 6.88879 61.9728 6.88879L62.1667 6.9387L62.3606 6.98861H62.4575C62.506 6.98861 62.506 6.98861 62.5545 6.98861L62.9907 7.08842C63.0392 7.08842 63.1361 7.13832 63.1846 7.13832L63.3784 7.18823L63.5723 7.23813C63.6208 7.23813 63.7177 7.28804 63.7662 7.28804L64.1539 7.43775L64.5417 7.63737C64.5902 7.68728 64.6871 7.68728 64.7356 7.73719L64.9294 7.837C65.0748 7.8869 65.1718 7.98671 65.3172 8.03662L65.6565 8.28614L65.8503 8.38595L65.9957 8.53567L66.335 8.7852C66.432 8.88501 66.5289 8.98482 66.6743 9.08463C66.9167 9.28425 67.1105 9.48387 67.3044 9.68349C68.1284 10.482 68.8069 11.3803 69.3886 12.3285C70.0187 13.2767 70.5518 14.2748 70.988 15.2729C71.4243 16.3209 71.812 17.3689 72.1513 18.4169C72.4906 19.5148 72.7329 20.5629 72.9753 21.7107C73.1691 22.8086 73.363 23.9065 73.4599 25.0543C73.5569 26.1522 73.6053 27.3001 73.6053 28.398C73.6053 29.4959 73.5569 30.6437 73.4599 31.7416C73.363 32.8396 73.2176 33.9874 72.9753 35.0853C72.539 37.2811 71.9089 39.477 70.988 41.5231C70.5518 42.5711 69.9702 43.5193 69.3886 44.4675C68.7585 45.4157 68.0799 46.314 67.3044 47.1125C67.1105 47.3121 66.9167 47.5117 66.6743 47.7113C66.5774 47.8111 66.4804 47.911 66.335 48.0108L65.9957 48.2603L65.8503 48.41L65.6565 48.5098L65.3172 48.7594C65.1718 48.8093 65.0748 48.9091 64.9294 48.959L64.7356 49.0588C64.6871 49.1087 64.5902 49.1087 64.5417 49.1586L64.1539 49.3582L63.7662 49.5079C63.7177 49.5079 63.6208 49.5578 63.5723 49.5578L63.3784 49.6077L63.1846 49.6576C63.1361 49.6576 63.0392 49.7076 62.9907 49.7076L62.5545 49.8074C62.506 49.8074 62.506 49.8074 62.4575 49.8074H62.3606L62.1667 49.8573L61.9728 49.9072C61.9244 49.9072 61.8274 49.9072 61.779 49.9072L61.3427 49.7076ZM61.3427 48.8592H61.7305C61.779 48.8592 61.8759 48.8592 61.9244 48.8592L62.1182 48.8093L62.3121 48.7594H62.4091C62.4575 48.7594 62.4575 48.7594 62.506 48.7594L62.8937 48.6595C62.9422 48.6595 62.9907 48.6096 63.0876 48.6096L63.2815 48.5597L63.4754 48.5098C63.5238 48.5098 63.5723 48.4599 63.6692 48.4599L64.0085 48.3102L64.3478 48.1605C64.3963 48.1106 64.4447 48.1106 64.5417 48.0607L64.6871 47.9609C64.784 47.911 64.9294 47.8112 65.0264 47.7612L65.3657 47.5616L65.5111 47.4618L65.6565 47.362L65.9473 47.1125C66.0442 47.0127 66.1412 46.9628 66.2381 46.8629C66.432 46.7132 66.6258 46.5136 66.8197 46.314C67.5467 45.5654 68.1768 44.717 68.71 43.8187C69.2432 42.9204 69.7278 41.9722 70.1641 40.9741C70.6003 39.976 70.9396 38.9779 71.2304 37.9299C71.3758 37.4308 71.5212 36.8819 71.6181 36.3828L71.812 35.5844C71.8605 35.3348 71.9089 35.0354 71.9574 34.7859C72.1513 33.7379 72.2967 32.6399 72.3936 31.5919C72.4906 30.494 72.539 29.446 72.539 28.3481C72.539 27.2502 72.4906 26.2022 72.3936 25.1042C72.2967 24.0063 72.1513 22.9583 71.9574 21.9103C71.9089 21.6608 71.8605 21.3613 71.812 21.1118L71.6181 20.3133C71.4727 19.7644 71.3758 19.2653 71.2304 18.7663C70.9396 17.7182 70.6003 16.7201 70.1641 15.722C69.7278 14.7239 69.2432 13.7757 68.71 12.8774C68.1768 11.9791 67.5467 11.1307 66.8197 10.3822C66.6258 10.1825 66.4804 9.98292 66.2381 9.83321C66.1412 9.7334 66.0442 9.63359 65.9473 9.58368L65.6565 9.33416L65.5111 9.23435L65.3657 9.13453L65.0264 8.93491C64.9294 8.88501 64.784 8.7852 64.6871 8.73529L64.5417 8.63548C64.4932 8.58557 64.4447 8.58558 64.3478 8.53567L64.0085 8.38595L63.6692 8.23624C63.6208 8.23624 63.5723 8.18633 63.4754 8.18633L63.2815 8.13643L63.0876 8.08652C63.0392 8.08652 62.9907 8.03662 62.8937 8.03662L62.506 7.9368C62.4575 7.9368 62.4575 7.9368 62.4091 7.9368H62.3121L62.1182 7.8869L61.9244 7.837C61.8759 7.837 61.779 7.837 61.7305 7.837H61.3427H60.955C60.9065 7.837 60.8096 7.837 60.7611 7.837H60.5672H60.3734H60.2764C60.228 7.837 60.228 7.837 60.1795 7.837L59.7917 7.9368C59.7433 7.9368 59.6463 7.98671 59.5979 7.98671L59.404 8.03662L59.2101 8.08652C59.1616 8.08652 59.1132 8.13643 59.0162 8.13643L58.677 8.28614L58.3377 8.43586C58.2892 8.48576 58.2407 8.48577 58.1438 8.53567L57.9984 8.63548C57.9015 8.68539 57.7561 8.7852 57.6591 8.8351L57.3198 9.03472L57.1744 9.13453L57.029 9.23435L56.7382 9.48387C56.6413 9.58368 56.5443 9.63359 56.4474 9.7334C56.2535 9.88312 56.0596 10.0827 55.8658 10.2824C55.0903 11.0309 54.4602 11.8793 53.8785 12.7776C53.2969 13.6759 52.7638 14.6241 52.3275 15.6222C51.8913 16.6203 51.5036 17.6184 51.2128 18.6664C50.8735 19.7145 50.6311 20.7625 50.4373 21.8604C50.2434 22.9583 50.098 24.0063 50.001 25.1042C49.9041 26.2022 49.8556 27.3001 49.8556 28.398C49.8556 29.4959 49.9041 30.5938 50.001 31.6917C50.098 32.7897 50.2434 33.8876 50.4373 34.9356C50.825 37.0815 51.4551 39.1775 52.376 41.1737C52.8122 42.1719 53.3454 43.1201 53.927 44.0183C54.5086 44.9166 55.1872 45.765 55.9142 46.5136C56.1081 46.7132 56.302 46.863 56.4959 47.0626C56.5928 47.1624 56.6897 47.2123 56.7867 47.3121L57.0775 47.5616L57.2229 47.6614L57.3683 47.7612L57.7076 47.9609C57.8045 48.0108 57.9499 48.1106 58.0469 48.1605L58.1923 48.2603C58.2407 48.3102 58.2892 48.3102 58.3861 48.3601L58.7254 48.5098L59.0647 48.6595C59.1132 48.6595 59.1616 48.7094 59.2586 48.7094L59.4525 48.7594L59.6463 48.8093C59.6948 48.8093 59.7433 48.8592 59.8402 48.8592L60.228 48.959C60.2764 48.959 60.2764 48.959 60.3249 48.959H60.4218H60.6157H60.8096C60.8581 48.959 60.955 48.959 61.0035 48.959L61.3427 48.8592Z" fill="white"/>
<path d="M60.2225 55.2844H42.5616C33.0851 55.2844 25.4272 42.9373 25.4272 27.7258C25.4272 12.5142 33.1329 0.167114 42.5616 0.167114H60.2225C50.7459 0.167114 43.0881 12.5142 43.0881 27.7258C43.0881 42.9373 50.7459 55.2844 60.2225 55.2844Z" fill="#FF7931"/>
<path d="M45.0713 40.6524C44.5933 39.2188 44.2109 37.6864 43.8764 36.154C43.6374 34.8193 43.3984 33.4847 43.255 32.1005C43.1116 30.7659 43.0638 29.4312 43.0638 28.0471C43.0638 27.9482 43.0638 27.8493 43.0638 27.7505C43.0638 26.4158 43.1116 25.0811 43.255 23.7464C43.3984 22.0163 43.6852 20.385 44.0198 18.7538C45.358 12.4264 48.1302 7.1371 51.6671 3.82512C52.5752 2.98477 53.5789 2.24328 54.5826 1.69952C55.3951 1.25463 56.2554 0.859171 57.1158 0.612008C57.9283 0.364845 58.7886 0.216547 59.6489 0.167114C59.8401 0.167114 60.0313 0.167114 60.2225 0.167114H42.5859C42.3947 0.167114 42.2035 0.167114 42.0123 0.167114C41.152 0.216547 40.3395 0.364845 39.4792 0.612008C38.6188 0.859171 37.7585 1.25463 36.946 1.69952C35.9423 2.29271 34.9386 2.98477 34.0305 3.82512C30.4936 7.1371 27.7214 12.4264 26.3832 18.7538C26.0486 20.3356 25.8096 22.0163 25.6184 23.7464C25.5228 25.0317 25.4272 26.3664 25.4272 27.7505C25.4272 27.8493 25.4272 27.9482 25.4272 28.0471C25.4272 29.4312 25.5228 30.7659 25.6184 32.1005C25.7618 33.4847 25.953 34.8688 26.2398 36.154C26.5743 37.7359 26.9567 39.2188 27.4347 40.6524C30.3024 49.3525 35.9901 55.2844 42.5381 55.2844H60.1747C53.6267 55.2844 47.939 49.3525 45.0713 40.6524Z" fill="#FF7931"/>
<path d="M61.428 55.7035C61.0816 55.7035 60.6858 55.7035 60.3394 55.6538C57.7169 55.5045 55.0944 55.604 52.472 55.5542C52.0266 55.5045 51.6308 55.4049 51.235 55.2557C54.0554 55.3552 56.183 55.405 59.1024 55.4547C58.756 55.405 58.4097 55.3054 58.0633 55.2059C57.8654 55.1561 57.519 55.2059 57.3211 55.2059C54.2533 55.1064 51.3339 55.0068 50.2453 54.9571C49.8495 54.8078 49.4537 54.6087 49.0578 54.4097C51.8782 54.559 54.0059 54.6585 56.8758 54.758C56.5294 54.6087 56.183 54.4594 55.8861 54.2604C55.6882 54.2106 55.3419 54.2106 55.1439 54.2106C52.0761 54.0613 49.0578 53.8623 48.1177 53.8125C47.7218 53.5637 47.3755 53.3149 46.9796 53.066C49.7505 53.2651 51.9277 53.4144 54.7481 53.5637C54.4512 53.3646 54.1048 53.1158 53.8079 52.9167C53.61 52.8172 53.3131 52.867 53.0657 52.867C50.0474 52.6679 47.0291 52.4191 46.0395 52.3693C45.6931 52.0707 45.3468 51.7224 45.0004 51.4238C47.7713 51.6726 49.8495 51.8219 52.7194 52.0708C52.4225 51.8219 52.1256 51.5233 51.8287 51.2248C51.6308 51.1252 51.3339 51.175 51.0865 51.175C48.0682 50.9262 45.2973 50.6276 44.1097 50.5281C43.7634 50.1797 43.4665 49.7816 43.1696 49.3835C46.2869 49.6821 48.5135 49.9309 50.8391 50.1299C50.5422 49.8314 50.2948 49.483 50.0474 49.1347C46.8807 48.7863 45.0004 48.5873 42.4274 48.3384C42.1305 47.8906 41.8336 47.4427 41.5862 46.9948C44.7035 47.3432 46.8807 47.592 49.1568 47.8906C48.9094 47.5422 48.662 47.1441 48.464 46.746C45.3468 46.3976 43.417 46.1488 40.8935 45.8005C40.6461 45.3028 40.3987 44.8052 40.1513 44.3075C42.7738 44.6559 45.0004 44.9545 47.6723 45.3028C47.4744 44.9047 47.2765 44.4568 47.0786 44.009C44.0108 43.6108 42.1305 43.362 39.607 42.9639C39.4091 42.4165 39.1617 41.8691 38.9637 41.3217C41.5862 41.7198 43.7139 42.0184 46.3858 42.4165C46.1879 41.9686 46.0395 41.471 45.891 41.0231C42.8727 40.5752 40.8935 40.2766 38.5184 39.9283C38.3205 39.3311 38.172 38.7837 38.0236 38.1865C40.6956 38.6344 42.6253 38.933 45.3468 39.3311C45.1983 38.8335 45.0993 38.3358 44.9509 37.8382C42.3779 37.4401 40.3492 37.0917 37.6278 36.6439C37.4793 36.0467 37.3804 35.3997 37.2814 34.7528C40.1018 35.2505 41.6357 35.4993 44.5551 35.9969C44.4561 35.4495 44.3571 34.9519 44.3077 34.4045C41.3388 33.9068 39.607 33.6082 37.0835 33.1604C36.9845 32.5134 36.935 31.8665 36.8856 31.2196C39.9534 31.767 41.2893 32.0158 44.0108 32.5134C43.9613 31.966 43.9118 31.4186 43.8623 30.8712C40.8935 30.3238 39.2111 30.0252 36.7866 29.5773C36.7866 29.0797 36.7866 28.6318 36.7866 28.1342C36.7866 27.9351 36.7866 27.7361 36.7866 27.537C42.6748 28.6318 42.6748 28.6318 43.8128 28.8806C43.8128 28.6318 43.8128 28.383 43.8128 28.1342C43.8128 27.7858 43.8128 27.4872 43.8128 27.1389C42.3779 26.8901 38.4195 26.1436 36.8361 25.845C36.8856 25.1981 36.935 24.5014 36.9845 23.8545C39.7059 24.3521 41.7347 24.7502 43.9118 25.1483C43.9613 24.6009 44.0108 24.0535 44.0603 23.5061C41.0914 22.9587 39.7554 22.7099 37.1824 22.262C37.2814 21.6151 37.3804 20.9681 37.4793 20.371C37.5288 20.1221 37.5783 19.8236 37.6278 19.5747C37.5783 19.8236 37.5288 20.0724 37.4793 20.371C40.4482 20.9184 41.3883 21.0677 44.3077 21.6151C44.4066 21.0677 44.5056 20.57 44.6045 20.0226C42.18 19.5747 40.2502 19.2264 37.8257 18.8283C37.9741 18.2311 38.1226 17.6339 38.271 17.0368C41.0419 17.5344 42.3779 17.7335 45.0004 18.1813C45.1488 17.6837 45.2478 17.1861 45.3962 16.6884C43.1696 16.2903 40.943 15.942 38.7163 15.5438C38.9143 14.9964 39.1122 14.3993 39.3101 13.8519C42.0315 14.2997 43.7139 14.5486 45.9405 14.9467C46.089 14.4988 46.2869 14.0012 46.4353 13.5533C43.5654 13.1054 41.4873 12.757 39.8049 12.5082C40.0523 11.9608 40.2502 11.4632 40.5471 10.9655C43.2686 11.3636 44.7035 11.6125 47.1281 11.9608C47.326 11.5129 47.5239 11.1148 47.7713 10.667C45.0499 10.2688 43.3675 10.02 41.2399 9.72143C41.4873 9.22379 41.7841 8.77591 42.081 8.32804C42.18 8.12898 42.3284 7.97969 42.4274 7.78063C42.2789 7.97969 42.18 8.12898 42.081 8.32804C44.753 8.67638 46.3364 8.9252 48.563 9.22379C48.8104 8.82568 49.0578 8.47733 49.2557 8.07921C46.5838 7.73087 44.8025 7.48204 42.7738 7.23322C43.0706 6.83511 43.3675 6.437 43.7139 6.03888C46.3364 6.33747 47.9692 6.53653 50.1464 6.78535C50.3938 6.437 50.6907 6.08865 50.9381 5.79006C48.3156 5.49148 46.4848 5.29242 44.5551 5.09336C44.9014 4.74501 45.2478 4.39666 45.5942 4.09808C48.2166 4.3469 49.8495 4.54596 51.9772 4.74501C52.274 4.44643 52.5709 4.19761 52.8678 3.89902C50.2453 3.6502 48.5135 3.50091 46.5343 3.30185C46.8807 3.00327 47.2765 2.75444 47.6229 2.50562C50.1959 2.70468 51.7792 2.85397 53.9564 3.00327C54.2533 2.75444 54.5996 2.55539 54.8965 2.35633C52.3235 2.15728 50.6412 2.05775 48.6125 1.90845C49.0083 1.7094 49.4042 1.51034 49.8 1.31129C52.373 1.46058 53.9564 1.56011 56.0841 1.65963C56.4304 1.51034 56.7273 1.31128 57.0737 1.21176C54.5007 1.06246 52.8183 1.0127 50.8391 0.913171C51.235 0.763879 51.6803 0.664352 52.0761 0.564823C54.6491 0.614588 56.2325 0.714113 58.3107 0.763877C58.6571 0.664349 59.0034 0.56482 59.3498 0.515056C56.7768 0.465292 55.1439 0.41553 53.1152 0.365766C53.5605 0.316002 54.0554 0.266235 54.5007 0.266235H52.9668C43.1696 0.266235 35.2527 12.7073 35.2527 28.0347C35.2527 43.362 43.2191 55.8031 52.9668 55.8031H54.5007L53.6595 55.7533C56.7768 55.7035 58.9539 55.7035 61.428 55.7035Z" fill="#48494D"/>
<path d="M33.62 27.9355C33.62 12.6082 41.5863 0.167114 51.334 0.167114H49.8001C49.3053 0.167114 48.8105 0.216877 48.3652 0.266641C45.149 0.316405 42.9718 0.366171 40.9431 0.415935C40.5967 0.465699 40.2504 0.565228 39.904 0.664756C43.4171 0.565228 45.9407 0.515463 47.2766 0.465699C46.8808 0.565227 46.4355 0.664758 46.0396 0.81405C42.8234 0.913579 40.5473 1.01311 38.667 1.11263C38.3206 1.26193 37.9743 1.41122 37.6774 1.56051C40.7452 1.41122 43.0213 1.31169 45.0005 1.21216C44.6047 1.41122 44.2088 1.56051 43.813 1.80933C40.6462 1.95863 38.3701 2.10792 36.4898 2.20745C36.193 2.4065 35.8466 2.60556 35.5497 2.85438C38.766 2.65533 40.8441 2.50603 42.8729 2.35674C42.477 2.60556 42.1306 2.85438 41.7843 3.15297C38.6175 3.40179 36.4404 3.55108 34.5106 3.70037C34.2137 3.94919 33.9168 4.24778 33.62 4.54637C36.7867 4.24778 38.9639 4.09849 40.8936 3.94919C40.5473 4.24778 40.2009 4.59613 39.8545 4.94448C36.7372 5.24306 34.4611 5.44212 32.6304 5.64118C32.3335 5.93976 32.0861 6.28811 31.8387 6.63646C35.0054 6.28811 37.1331 6.08906 39.0134 5.89C38.7165 6.28811 38.3701 6.68623 38.0732 7.08434C34.9559 7.43269 32.9272 7.63175 30.8985 7.88057C30.6511 8.22892 30.4037 8.62703 30.2058 9.02514C33.1746 8.6768 35.4013 8.42797 37.331 8.17915C37.0341 8.62703 36.7867 9.07491 36.4898 9.57255C33.3726 9.97066 31.5913 10.1697 29.4141 10.4683C29.2162 10.8664 28.9688 11.3143 28.7709 11.7622C31.8881 11.3641 33.8674 11.0655 35.8466 10.8167C35.5992 11.3143 35.3518 11.8119 35.1539 12.3593C32.0861 12.7575 30.0079 13.056 28.1276 13.3546C27.9297 13.8025 27.7812 14.2504 27.6328 14.748C30.5522 14.3002 32.8283 14.0016 34.6096 13.7527C34.4117 14.3002 34.2137 14.8476 34.0158 15.4447C30.7501 15.9424 28.276 16.3405 27.0885 16.4898C26.9401 16.9874 26.7916 17.4851 26.6927 17.9827C29.612 17.5348 31.7892 17.1865 33.62 16.8879C33.4715 17.4851 33.3231 18.0822 33.1746 18.6794C30.2058 19.177 28.1771 19.4756 26.2968 19.824C26.1979 20.3216 26.0989 20.869 25.9999 21.4164C29.2657 20.869 31.6407 20.4709 32.8283 20.2719C32.7293 20.9188 32.6303 21.516 32.5314 22.1629C29.612 22.6605 27.7318 23.0089 25.7525 23.3572C25.703 23.9046 25.6536 24.452 25.6041 24.9995C28.8203 24.4023 31.4428 23.9544 32.3335 23.8051C32.284 24.452 32.2345 25.099 32.185 25.7957C29.0677 26.3929 26.5937 26.8407 25.5051 27.0398C25.5051 27.3881 25.5051 27.6867 25.5051 28.0351C25.5051 28.2839 25.5051 28.5327 25.5051 28.7815C27.7318 28.3834 29.9089 27.9355 32.1355 27.5374C32.1355 27.6867 32.1355 27.8858 32.1355 28.0351C32.1355 28.5327 32.1355 29.0801 32.185 29.5778C28.9688 30.1749 26.4453 30.6726 25.6041 30.8219C25.6536 31.3693 25.703 31.9167 25.7525 32.4641C27.7318 32.1157 29.9089 31.7176 32.284 31.2697C32.3335 31.9167 32.3829 32.5636 32.4819 33.2105C31.2944 33.4096 28.9193 33.8575 25.9999 34.4049C26.0989 34.9523 26.1484 35.4499 26.2473 35.9973C29.2162 35.4499 31.2944 35.1016 32.6798 34.8528C32.7788 35.4997 32.8777 36.0969 33.0262 36.7438C29.9584 37.2912 27.4844 37.7391 26.6432 37.8386C26.7421 38.3363 26.8906 38.8339 27.039 39.3315C29.9584 38.8339 32.0861 38.4856 33.3726 38.2367C33.521 38.8339 33.6694 39.4311 33.8674 39.9785C31.047 40.4264 29.5625 40.6752 27.5833 41.0235C27.7318 41.5212 27.9297 41.969 28.0781 42.4169C30.9975 41.969 32.9767 41.6207 34.3127 41.4216C34.5106 41.969 34.7085 42.5165 34.9559 43.0639C32.2345 43.5117 30.4037 43.7606 28.7709 44.0094C28.9688 44.4573 29.1667 44.8554 29.3646 45.3032C32.2345 44.8554 34.3127 44.5568 35.5497 44.3577C35.7971 44.8554 36.0445 45.353 36.2919 45.8507C36.3909 46.0497 36.4898 46.2488 36.6383 46.4478C36.5393 46.2488 36.3909 46.0497 36.2919 45.8507C33.5705 46.2488 31.6902 46.4976 30.1563 46.7464C30.4037 47.1445 30.6016 47.5426 30.849 47.891C33.7189 47.4929 35.7971 47.2441 36.9352 47.045C37.2321 47.4929 37.4795 47.9408 37.7763 48.3886C35.2528 48.737 33.3726 48.936 31.6902 49.1351C31.9376 49.4834 32.2345 49.8318 32.4819 50.1304C35.1044 49.8318 36.8857 49.6327 38.5185 49.4337C38.8154 49.8318 39.1618 50.2299 39.4587 50.5783C36.8362 50.8768 35.1044 51.0759 33.4715 51.2252C33.7684 51.5238 34.0653 51.8224 34.3622 52.0712C36.9352 51.8224 38.8154 51.6233 40.3493 51.474C40.6957 51.8224 41.0421 52.1209 41.3884 52.4195C41.4874 52.4693 41.5369 52.5688 41.6358 52.6186C41.5369 52.5688 41.4874 52.4693 41.3884 52.4195C38.766 52.6684 37.0341 52.8176 35.4507 52.9669C35.7476 53.2158 36.094 53.4148 36.3909 53.6139C38.9639 53.4148 40.7947 53.2655 42.3286 53.1162C42.6749 53.365 43.0708 53.6139 43.4666 53.8627C40.6462 54.0617 38.6175 54.211 37.5784 54.2608C37.9248 54.4101 38.2217 54.6092 38.568 54.7584C41.141 54.6092 42.9718 54.5096 44.4562 54.4101C44.8521 54.6092 45.2479 54.7585 45.6438 54.9575C42.8728 55.1068 40.7947 55.1566 39.7556 55.2063C40.1019 55.3059 40.4483 55.4054 40.7947 55.4552C43.3182 55.4054 45.0995 55.3059 46.6334 55.2561C47.0292 55.3556 47.4746 55.4552 47.8704 55.5547C45.0995 55.6044 43.1203 55.6542 42.0317 55.6542C42.378 55.704 42.7739 55.704 43.1203 55.704H43.1697C45.8912 55.704 47.8209 55.704 48.959 55.6542C49.2064 55.6542 49.5033 55.704 49.7507 55.704H51.2846C41.5369 55.704 33.62 43.2629 33.62 27.9355Z" fill="#48494D"/>
<path d="M88.2272 17.8433C92.3411 15.8634 93.8281 11.6067 93.8777 11.3593L94.4725 9.57739H66.9138L68.4008 11.7057C69.6895 13.5866 70.7304 15.6655 71.4243 17.8433L71.6721 18.6352L71.8704 19.5262C72.3165 21.407 72.5643 23.3869 72.5643 25.3173C72.5643 25.4163 72.5643 25.5648 72.5643 25.6637V26.4557L72.5148 27.2971C72.3661 29.376 71.8704 31.4548 71.1765 33.4347L70.9287 34.1276L70.6313 34.7711C69.6895 36.9984 71.3252 39.0773 69.7391 40.9087L67.9051 43.1855H73.1591H73.2087C80.0983 42.5915 82.3784 36.058 82.4775 35.761L82.6262 35.2661H82.6758C89.5654 34.6721 91.8455 28.1386 91.9446 27.8416L92.3411 26.7032C97.8429 25.2678 99.6769 19.8232 99.776 19.5757L100.371 17.7938H88.2272V17.8433Z" fill="white"/>
<path d="M65.5757 9.57739C66.8782 11.6298 67.9396 13.8874 68.7114 16.299H93.8457C99.7795 15.7346 101.709 9.57739 101.709 9.57739H65.5757Z" fill="#FF7931"/>
<path d="M69.5905 35.1196H84.4173C90.3967 34.5552 92.3412 28.3979 92.3412 28.3979H70.9516C70.7572 30.7582 70.3196 33.0159 69.5905 35.1196Z" fill="#FF7931"/>
<path d="M65.5757 41.8412H77.49C83.6474 41.3896 85.6498 36.4639 85.6498 36.4639H69.6806C68.6294 38.3931 67.2277 40.2403 65.5757 41.8412Z" fill="#FF7931"/>
<path d="M70.2783 25.3501C70.2783 25.4527 70.2783 25.6067 70.2783 25.7093H89.6857C95.729 25.1449 97.6943 18.9877 97.6943 18.9877H69.5905C70.0326 20.9888 70.2783 23.1438 70.2783 25.3501Z" fill="#FF7931"/>
</svg>
